<?xml version="1.0" encoding="utf-8"?>
<!-- Generator: Adobe Illustrator 19.0.0, SVG Export Plug-In . SVG Version: 6.00 Build 0)  -->
<svg version="1.1" id="Layer_1" xmlns="http://www.w3.org/2000/svg" xmlns:xlink="http://www.w3.org/1999/xlink" x="0px" y="0px"
	 viewBox="0 0 468 286.5" style="enable-background:new 0 0 468 286.5;" xml:space="preserve">
<style type="text/css">
	.st0{fill:#E7E5F3;}
	.st1{fill-rule:evenodd;clip-rule:evenodd;fill:#E7E5F3;}
</style>
<g id="XMLID_58_">
	<g id="XMLID_134_">
		<g id="XMLID_191_">
			<path id="XMLID_214_" class="st0" d="M118,190.6c0-3.9,3.7-6.7,5-18.1h0.4c1.3,11.3,5,14.2,5,18.1c0,3.2-2.4,5.1-5.2,5.1
				C120.5,195.7,118,193.8,118,190.6z M127.9,165.7c0,2.6-2.1,4.7-4.7,4.7c-2.6,0-4.7-2.1-4.7-4.7c0-2.6,2.1-4.7,4.7-4.7
				C125.7,160.9,127.9,163,127.9,165.7z"/>
			<path id="XMLID_211_" class="st0" d="M132.1,177.6c0-4.6,4.3-6.4,9.6-6.4c2,0,4.2,0.3,5.9,0.7v-5.7c0-3.1-0.7-5.8-4.2-5.8
				c-2.3,0-3.7,1.1-4.6,2.4c1.5,0.7,2.4,2.3,2.4,3.9c0,2.2-1.8,4-4.1,4c-2.6,0-3.9-2.1-3.9-4.1c0-3.6,4.4-6.4,10.8-6.4
				c5.7,0,12.4,2.3,12.4,8.8v11.6c0,1,0.5,1.5,1.4,1.5c1.4,0,2.6-1.4,3.5-2.7l0.3,0.2c-1.5,2.2-3.4,4.3-7.2,4.3
				c-3.4,0-5.3-1.7-6.2-3.8c-1.5,2-3.9,3.9-8,3.9C135.3,184,132.1,181.6,132.1,177.6z M147.6,180.1v-7.8c-0.8-0.2-1.8-0.4-2.6-0.4
				c-2.8,0-4,2-4,5.2c0,2.7,0.8,5.1,3.2,5.1C145.2,182.2,146.4,181.6,147.6,180.1z"/>
			<path id="XMLID_209_" class="st0" d="M171.1,183.1c2.9,0,3.3-1.9,3.3-4.6V153c0-2.7-0.3-4.6-3.3-4.6v-0.3L183,147v31.5
				c0,2.7,0.3,4.6,3.3,4.6v0.3h-15.2V183.1z"/>
			<path id="XMLID_205_" class="st0" d="M188.6,177.6c0-4.6,4.3-6.4,9.6-6.4c2,0,4.2,0.3,5.9,0.7v-5.7c0-3.1-0.7-5.8-4.2-5.8
				c-2.3,0-3.7,1.1-4.6,2.4c1.5,0.7,2.4,2.3,2.4,3.9c0,2.2-1.8,4-4.1,4c-2.6,0-3.9-2.1-3.9-4.1c0-3.6,4.4-6.4,10.8-6.4
				c5.7,0,12.4,2.3,12.4,8.8v11.6c0,1,0.5,1.5,1.4,1.5c1.4,0,2.6-1.4,3.5-2.7l0.3,0.2c-1.5,2.2-3.4,4.3-7.2,4.3
				c-3.4,0-5.3-1.7-6.2-3.8c-1.5,2-3.9,3.9-8,3.9C191.9,184,188.6,181.6,188.6,177.6z M204.2,180.1v-7.8c-0.8-0.2-1.8-0.4-2.6-0.4
				c-2.8,0-4,2-4,5.2c0,2.7,0.8,5.1,3.2,5.1C201.8,182.2,203,181.6,204.2,180.1z"/>
			<path id="XMLID_203_" class="st0" d="M228,183.1c2.9,0,3.3-1.9,3.3-4.6v-12.4c0-2.7-0.3-4.6-3.3-4.6v-0.3l11.4-1.1v4.5
				c2.2-2.3,5-4.5,8.5-4.5c2.8,0,5.3,1.4,6.2,4.6c2.2-2.4,5-4.6,8.7-4.6c3.6,0,6.5,2.1,6.5,7.5v10.9c0,2.7,0.3,4.6,3.3,4.6v0.3
				h-14.4v-0.3c2.3,0,2.7-1.9,2.7-4.6v-11.9c0-2.7-1.2-3.8-2.8-3.8c-1.6,0-2.9,1.1-3.9,2.2c0.2,0.8,0.3,1.6,0.3,2.6v10.9
				c0,2.7,0.2,4.6,2.9,4.6v0.3h-14v-0.3c2.3,0,2.7-1.9,2.7-4.6v-11.9c0-2.7-1.2-3.8-2.8-3.8c-1.4,0-2.6,0.9-3.6,1.9v13.7
				c0,2.7,0.4,4.6,2.7,4.6v0.3H228V183.1z"/>
			<path id="XMLID_200_" class="st0" d="M274.8,172.1c0-6.6,5.1-12,13-12c7,0,11.4,4.2,11.7,10.9h-15.8c0.1,7.2,2.8,11.6,7.8,11.6
				c3.5,0,6-2.3,7.6-4.2l0.3,0.2c-2,2.4-5.1,5.4-11.4,5.4C279.2,184,274.8,178.3,274.8,172.1z M283.7,170.6h7.3
				c0-2.2,0.1-10.2-3.4-10.2C284.6,160.4,283.7,166.5,283.7,170.6z"/>
			<path id="XMLID_198_" class="st0" d="M303.6,183l-0.2-7.2l0.2-0.1c2,4.2,3.7,8,8.7,8c3.8,0,4.5-2.2,4.5-3.5
				c0-6-13.3-3.5-13.3-12.6c0-4.8,3.8-7.3,9.9-7.3c3.4,0,5.7,0.8,8.5,0.1l0.3,7.8l-0.2,0.1c-1.8-4-4-7.7-8.1-7.7
				c-3,0-3.9,1.9-3.9,3.4c0,5.7,13.4,3.3,13.4,12.4c0,5.2-4.4,7.7-10.7,7.7C309.6,184,305.9,183.4,303.6,183z"/>
			<path id="XMLID_195_" class="st0" d="M327,177.6c0-4.6,4.3-6.4,9.6-6.4c2,0,4.2,0.3,5.9,0.7v-5.7c0-3.1-0.7-5.8-4.2-5.8
				c-2.3,0-3.7,1.1-4.6,2.4c1.5,0.7,2.4,2.3,2.4,3.9c0,2.2-1.8,4-4.1,4c-2.6,0-3.9-2.1-3.9-4.1c0-3.6,4.4-6.4,10.8-6.4
				c5.7,0,12.4,2.3,12.4,8.8v11.6c0,1,0.5,1.5,1.4,1.5c1.4,0,2.6-1.4,3.5-2.7l0.3,0.2c-1.5,2.2-3.4,4.3-7.2,4.3
				c-3.4,0-5.3-1.7-6.1-3.8c-1.5,2-3.9,3.9-8,3.9C330.2,184,327,181.6,327,177.6z M342.5,180.1v-7.8c-0.8-0.2-1.8-0.4-2.6-0.4
				c-2.8,0-4,2-4,5.2c0,2.7,0.8,5.1,3.2,5.1C340.1,182.2,341.3,181.6,342.5,180.1z"/>
			<path id="XMLID_192_" class="st0" d="M358,154.2c0-3.2,2.4-5.1,5.2-5.1c2.7,0,5.2,1.9,5.2,5.1c0,3.9-3.7,6.7-5,18.1H363
				C361.7,160.9,358,158.1,358,154.2z M358.5,179.2c0-2.6,2.1-4.7,4.7-4.7c2.6,0,4.7,2.1,4.7,4.7s-2.1,4.7-4.7,4.7
				C360.6,183.9,358.5,181.8,358.5,179.2z"/>
		</g>
	</g>
	<g id="XMLID_122_">
		<g id="XMLID_243_">
			<path id="XMLID_263_" class="st1" d="M256,110.5c-0.2-0.2-0.2-0.7,0-0.9l9.4-9.6c0.2-0.2-0.2-0.6-0.4-0.4l-10,9
				c-0.3,0.2-0.7,0.2-0.9,0c-0.2-0.2-0.3-0.7,0-0.9c3.1-3.1,6.4-6.2,9.8-9.3c0.1-0.1-0.2-0.4-0.3-0.3c-4.1,3.1-8.3,6.4-11.9,9.9
				c-0.7,0.6-1,1.5-0.9,2.4l0.1,2c0,0.8-0.2,1.5-0.6,2.1c-0.2-0.2-0.6-0.2-0.8,0c-0.2,0.2-0.2,0.6,0,0.8l-4.7,4.7
				c-0.9,0.9-1.9,1.8-2.9,2.7c-1-0.9-2-1.9-2.9-2.7l-4.7-4.7c0.2-0.2,0.2-0.6,0-0.8c-0.2-0.2-0.5-0.2-0.8,0
				c-0.5-0.6-0.7-1.3-0.7-2.1l0.1-2c0-0.9-0.3-1.7-0.9-2.4c-3.6-3.6-7.8-6.9-11.9-9.9c-0.1-0.1-0.4,0.2-0.3,0.3
				c3.4,3.1,6.7,6.1,9.8,9.3c0.3,0.2,0.2,0.7,0,0.9c-0.2,0.2-0.6,0.2-0.9,0l-10-9c-0.2-0.2-0.6,0.2-0.4,0.4l9.4,9.6
				c0.2,0.3,0.2,0.7,0,0.9c-0.2,0.2-0.7,0.2-0.9,0l-9.6-9.4c-0.2-0.2-0.6,0.2-0.4,0.4l9,10c0.2,0.3,0.2,0.7,0,0.9
				c-0.2,0.2-0.7,0.3-0.9,0c-3.1-3.1-6.2-6.4-9.3-9.8c-0.1-0.1-0.4,0.2-0.3,0.3c3.1,4.1,6.4,8.3,9.9,11.9c0.6,0.7,1.5,1,2.4,0.9
				l2-0.1c0.8,0,1.5,0.2,2.1,0.6c-0.2,0.2-0.2,0.6,0,0.8c0.2,0.2,0.6,0.2,0.8,0l4.7,4.7c0.8,0.8,1.7,1.8,2.6,2.8
				c-3.1,2.7-6.5,5.5-9.2,7.8c-1.1,1-2.4,2-3.5,3.1c-3.1,3.1-3.9,5.3-2.6,6.6c1.2,1.2,3.4,0.5,6.6-2.6c1.1-1.1,2.1-2.3,3-3.5
				c2.2-2.7,5-6,7.7-9.1c2.7,3.1,5.4,6.4,7.7,9.1c1,1.1,2,2.4,3.1,3.5c3.1,3.1,5.3,3.9,6.6,2.6c1.2-1.2,0.5-3.4-2.6-6.6
				c-1.1-1.1-2.3-2.1-3.5-3.1c-2.7-2.3-6.1-5-9.2-7.8c0.9-1,1.8-1.9,2.6-2.8l4.7-4.7c0.2,0.2,0.6,0.2,0.8,0c0.2-0.2,0.2-0.5,0-0.8
				c0.6-0.5,1.3-0.7,2.1-0.6l2,0.1c0.9,0,1.7-0.3,2.4-0.9c3.6-3.6,6.9-7.8,9.9-11.9c0.1-0.1-0.2-0.4-0.3-0.3
				c-3.1,3.4-6.1,6.7-9.3,9.8c-0.2,0.3-0.7,0.2-0.9,0c-0.2-0.2-0.2-0.6,0-0.9l9-10c0.2-0.2-0.2-0.6-0.4-0.4l-9.6,9.4
				C256.6,110.7,256.2,110.7,256,110.5z"/>
		</g>
		<g id="XMLID_46_">
			<path id="XMLID_47_" class="st0" d="M208.5,128.7c-0.1,0-0.1,0-0.1-0.1v-5.8c0-0.1,0-0.1,0.1-0.1h3.1c0,0,0.1,0,0.1,0
				c0,0,0,0.1,0,0.1v0.6c0,0,0,0.1,0,0.1c0,0-0.1,0-0.1,0h-2.5v1.8h1.9c0.1,0,0.1,0,0.1,0.1v0.6c0,0.1,0,0.1-0.1,0.1h-1.9v1.8h2.5
				c0,0,0.1,0,0.1,0c0,0,0,0.1,0,0.1v0.6c0,0,0,0.1,0,0.1c0,0-0.1,0-0.1,0H208.5z"/>
			<path id="XMLID_111_" class="st0" d="M217.9,128.6c-0.1,0.1-0.1,0.1-0.2,0.1h-2.2c-0.1,0-0.2,0-0.2-0.1l-0.5-0.5
				c0,0-0.1-0.1-0.1-0.1c0,0,0-0.1,0-0.1v-0.9c0-0.1,0-0.1,0.1-0.1h0.6c0.1,0,0.1,0,0.1,0.1v0.5c0,0,0,0.1,0,0.1l0.2,0.2
				c0,0,0,0,0.1,0h1.6c0,0,0,0,0.1,0l0.2-0.2c0,0,0,0,0,0v-1.3l-0.3-0.3h-2c0,0-0.1,0-0.1,0s-0.1,0-0.1-0.1l-0.5-0.5
				c-0.1-0.1-0.1-0.1-0.1-0.1c0,0,0-0.1,0-0.1v-1.8c0-0.1,0-0.2,0.1-0.2l0.5-0.5c0,0,0.1-0.1,0.1-0.1c0,0,0.1,0,0.1,0h2.2
				c0,0,0,0,0.1,0c0,0,0.1,0,0.1,0.1l0.5,0.5c0,0,0.1,0.1,0.1,0.1s0,0.1,0,0.1v0.9c0,0.1,0,0.1-0.1,0.1h-0.6c-0.1,0-0.1,0-0.1-0.1
				v-0.6c0,0,0-0.1,0-0.1l-0.2-0.2c0,0,0,0,0,0h-1.7c0,0,0,0,0,0l-0.2,0.2c0,0,0,0,0,0.1v1.2c0,0,0,0,0,0.1l0.2,0.2c0,0,0.1,0,0.1,0
				h1.9c0,0,0.1,0,0.1,0c0,0,0.1,0,0.1,0.1l0.5,0.5c0.1,0.1,0.1,0.1,0.1,0.2v1.8c0,0,0,0,0,0.1c0,0,0,0.1-0.1,0.1L217.9,128.6z"/>
			<path id="XMLID_137_" class="st0" d="M222.7,128.7C222.7,128.7,222.6,128.7,222.7,128.7c-0.1-0.1-0.1-0.1-0.1-0.1v-5.1h-1.3
				c0,0-0.1,0-0.1,0c0,0,0-0.1,0-0.1v-0.6c0,0,0-0.1,0-0.1c0,0,0.1,0,0.1,0h3.5c0,0,0.1,0,0.1,0c0,0,0,0.1,0,0.1v0.6
				c0,0,0,0.1,0,0.1c0,0-0.1,0-0.1,0h-1.3v5.1c0,0,0,0.1,0,0.1s0,0-0.1,0H222.7z"/>
		</g>
		<g id="XMLID_123_">
			<path id="XMLID_225_" class="st0" d="M256.3,128.7c-0.1,0-0.1,0-0.1-0.1V126c0,0,0,0,0-0.1c0,0,0,0,0-0.1c0,0,0-0.1,0.1-0.1
				l0.5-0.5c0.1-0.1,0.1-0.1,0.2-0.1h2.2l0.1-0.1c0,0,0,0,0-0.1v-1.3c0,0,0,0,0-0.1l-0.1-0.1c0,0,0,0-0.1,0H257v0.9c0,0,0,0.1,0,0.1
				c0,0-0.1,0-0.1,0h-0.6c0,0-0.1,0-0.1,0c0,0,0-0.1,0-0.1v-0.9c0,0,0-0.1,0-0.1c0,0,0-0.1,0.1-0.1l0.5-0.5c0.1-0.1,0.1-0.1,0.2-0.1
				h2.2c0.1,0,0.1,0,0.1,0c0,0,0.1,0,0.1,0.1l0.5,0.5c0,0,0,0.1,0.1,0.1c0,0,0,0.1,0,0.1c0,0,0,0,0,0.1v1.8c0,0,0,0.1,0,0.1
				c0,0,0,0.1-0.1,0.1l-0.5,0.5c-0.1,0.1-0.1,0.1-0.2,0.1h-2c0,0,0,0-0.1,0l-0.1,0.1c0,0,0,0,0,0.1v1.6h2.9c0,0,0.1,0,0.1,0
				c0,0,0,0.1,0,0.1v0.6c0,0.1,0,0.1-0.1,0.1H256.3z"/>
			<path id="XMLID_233_" class="st0" d="M266.4,128.6C266.3,128.7,266.3,128.7,266.4,128.6c-0.1,0.1-0.2,0.1-0.2,0.1h-2.2
				c0,0-0.1,0-0.1,0c-0.1,0-0.1,0-0.1-0.1l-0.5-0.5c0,0-0.1-0.1-0.1-0.1c0,0,0-0.1,0-0.1v-4.4c0-0.1,0-0.2,0.1-0.2l0.5-0.5
				c0,0,0.1-0.1,0.1-0.1c0,0,0,0,0.1,0h2.2c0,0,0,0,0.1,0c0.1,0,0.1,0,0.2,0.1l0.5,0.5c0,0,0.1,0.1,0.1,0.1c0,0,0,0.1,0,0.1v4.4
				c0,0.1,0,0.2-0.1,0.2L266.4,128.6z M266.1,127.8C266.1,127.8,266.1,127.7,266.1,127.8l0-4c0,0,0-0.1,0-0.1l-0.1-0.1
				c0,0-0.1,0-0.1,0h-1.7c0,0-0.1,0-0.1,0l-0.1,0.1c0,0,0,0,0,0c0,0,0,0,0,0v4c0,0,0,0,0,0.1l0.1,0.1h1.9L266.1,127.8z"/>
			<path id="XMLID_262_" class="st0" d="M270.4,128.7c-0.1,0-0.1,0-0.1-0.1v-5.1h-0.5c0,0-0.1,0-0.1,0c0,0,0-0.1,0-0.1l0.4-0.5
				c0,0,0.1-0.1,0.1-0.1c0,0,0,0,0.1,0h0.7c0,0,0.1,0,0.1,0c0,0,0,0.1,0,0.1v5.8c0,0,0,0.1,0,0.1c0,0-0.1,0-0.1,0H270.4z"/>
			<path id="XMLID_265_" class="st0" d="M277.4,128.6c0,0-0.1,0.1-0.1,0.1c0,0-0.1,0-0.1,0h0h-2.2c0,0-0.1,0-0.1,0c0,0,0,0-0.1-0.1
				l-0.5-0.5c-0.1-0.1-0.1-0.1-0.1-0.2v-4.5c0,0,0-0.1,0-0.1s0-0.1,0.1-0.1l0.5-0.5c0,0,0.1-0.1,0.1-0.1c0,0,0.1,0,0.1,0h2.2
				c0,0,0.1,0,0.1,0c0,0,0.1,0,0.1,0.1l0.5,0.5c0.1,0.1,0.1,0.1,0.1,0.2v0.9c0,0,0,0.1,0,0.1s-0.1,0-0.1,0h-0.5c0,0-0.1,0-0.1,0
				c0,0,0-0.1,0-0.1v-0.9h-2c0,0,0,0-0.1,0l-0.1,0.1c0,0,0,0,0,0c0,0,0,0,0,0v1.2c0,0,0,0,0,0.1l0.1,0.1h2c0,0,0.1,0,0.1,0
				c0,0,0.1,0,0.1,0.1l0.5,0.5c0,0,0.1,0.1,0.1,0.1c0,0,0,0.1,0,0.1v2.1c0,0,0,0.1,0,0.1c0,0,0,0.1-0.1,0.1L277.4,128.6z
				 M277.1,127.8C277.1,127.7,277.1,127.7,277.1,127.8l0-1.6c0,0,0,0,0-0.1l-0.2-0.2h-1.7c0,0,0,0-0.1,0l-0.1,0.1c0,0,0,0,0,0.1v1.6
				c0,0,0,0,0,0.1l0.1,0.1h1.9L277.1,127.8z"/>
		</g>
	</g>
</g>
</svg>
