<?xml version="1.0" encoding="utf-8"?>
<!-- Generator: Adobe Illustrator 16.0.0, SVG Export Plug-In . SVG Version: 6.00 Build 0)  -->
<!DOCTYPE svg PUBLIC "-//W3C//DTD SVG 1.1//EN" "http://www.w3.org/Graphics/SVG/1.1/DTD/svg11.dtd">
<svg version="1.1" id="Layer_1" xmlns="http://www.w3.org/2000/svg" xmlns:xlink="http://www.w3.org/1999/xlink" x="0px" y="0px"
	 width="17.845px" height="11.414px" viewBox="51.244 55.854 17.845 11.414" enable-background="new 51.244 55.854 17.845 11.414"
	 xml:space="preserve">
<g id="XMLID_134_" display="none">
	<g id="XMLID_191_" display="inline">
		<path id="XMLID_214_" fill="#E7E5F3" d="M38.866,65.333c0-1,0.949-1.718,1.283-4.642h0.102c0.334,2.897,1.282,3.642,1.282,4.642
			c0,0.819-0.615,1.31-1.333,1.31C39.507,66.643,38.866,66.152,38.866,65.333z M41.404,58.948c0,0.667-0.539,1.205-1.205,1.205
			c-0.667,0-1.205-0.538-1.205-1.205c0-0.666,0.538-1.205,1.205-1.205C40.84,57.718,41.404,58.257,41.404,58.948z"/>
		<path id="XMLID_211_" fill="#E7E5F3" d="M42.48,62c0-1.18,1.104-1.642,2.463-1.642c0.512,0,1.076,0.078,1.512,0.18v-1.461
			c0-0.795-0.18-1.487-1.076-1.487c-0.59,0-0.949,0.282-1.18,0.615c0.385,0.18,0.615,0.59,0.615,1c0,0.564-0.461,1.026-1.051,1.026
			c-0.667,0-1-0.539-1-1.052c0-0.923,1.128-1.642,2.769-1.642c1.462,0,3.18,0.59,3.18,2.257v2.976c0,0.256,0.128,0.383,0.358,0.383
			c0.359,0,0.668-0.357,0.898-0.69l0.076,0.052c-0.385,0.563-0.871,1.103-1.846,1.103c-0.872,0-1.359-0.437-1.59-0.974
			c-0.385,0.512-1,1-2.051,1C43.302,63.643,42.48,63.025,42.48,62z M46.455,62.643v-2c-0.205-0.053-0.461-0.104-0.666-0.104
			c-0.719,0-1.025,0.514-1.025,1.334c0,0.69,0.205,1.308,0.82,1.308C45.84,63.18,46.148,63.025,46.455,62.643z"/>
		<path id="XMLID_209_" fill="#E7E5F3" d="M52.48,63.41c0.744,0,0.847-0.487,0.847-1.18v-6.539c0-0.692-0.077-1.18-0.847-1.18
			v-0.076l3.052-0.283v8.078c0,0.691,0.077,1.18,0.847,1.18v0.076H52.48V63.41z"/>
		<path id="XMLID_205_" fill="#E7E5F3" d="M56.969,62c0-1.18,1.102-1.642,2.461-1.642c0.514,0,1.077,0.078,1.513,0.18v-1.461
			c0-0.795-0.18-1.487-1.077-1.487c-0.59,0-0.948,0.282-1.179,0.615c0.384,0.18,0.615,0.59,0.615,1c0,0.564-0.462,1.026-1.052,1.026
			c-0.666,0-1-0.539-1-1.052c0-0.923,1.129-1.642,2.77-1.642c1.46,0,3.18,0.59,3.18,2.257v2.976c0,0.256,0.128,0.383,0.358,0.383
			c0.358,0,0.666-0.357,0.896-0.69l0.077,0.052c-0.384,0.563-0.872,1.103-1.847,1.103c-0.871,0-1.358-0.437-1.59-0.974
			c-0.385,0.512-1,1-2.052,1C57.814,63.643,56.969,63.025,56.969,62z M60.969,62.643v-2c-0.205-0.053-0.462-0.104-0.667-0.104
			c-0.718,0-1.026,0.514-1.026,1.334c0,0.69,0.205,1.308,0.821,1.308C60.354,63.18,60.66,63.025,60.969,62.643z"/>
		<path id="XMLID_203_" fill="#E7E5F3" d="M67.07,63.41c0.744,0,0.847-0.487,0.847-1.18v-3.18c0-0.693-0.077-1.18-0.847-1.18v-0.077
			l2.924-0.282v1.154c0.564-0.59,1.281-1.154,2.18-1.154c0.719,0,1.358,0.359,1.59,1.18c0.563-0.615,1.281-1.18,2.23-1.18
			c0.923,0,1.666,0.539,1.666,1.924v2.794c0,0.691,0.078,1.18,0.847,1.18v0.076h-3.692V63.41c0.59,0,0.692-0.487,0.692-1.18v-3.05
			c0-0.692-0.308-0.975-0.718-0.975s-0.744,0.282-1,0.564c0.051,0.205,0.076,0.41,0.076,0.667v2.794c0,0.691,0.052,1.18,0.744,1.18
			v0.076h-3.59V63.41c0.59,0,0.691-0.487,0.691-1.18v-3.05c0-0.692-0.309-0.975-0.718-0.975c-0.359,0-0.667,0.231-0.925,0.487v3.513
			c0,0.691,0.104,1.18,0.693,1.18v0.077H67.07V63.41z"/>
		<path id="XMLID_200_" fill="#E7E5F3" d="M79.07,60.59c0-1.692,1.309-3.077,3.334-3.077c1.795,0,2.923,1.077,3,2.795h-4.051
			c0.024,1.846,0.717,2.975,2,2.975c0.896,0,1.537-0.59,1.947-1.077l0.077,0.052c-0.515,0.615-1.31,1.385-2.924,1.385
			C80.199,63.643,79.07,62.18,79.07,60.59z M81.354,60.205h1.871c0-0.563,0.025-2.615-0.871-2.615
			C81.584,57.59,81.354,59.153,81.354,60.205z"/>
		<path id="XMLID_198_" fill="#E7E5F3" d="M86.455,63.385l-0.051-1.847l0.051-0.024c0.514,1.076,0.949,2.051,2.23,2.051
			c0.975,0,1.153-0.563,1.153-0.896c0-1.539-3.409-0.896-3.409-3.23c0-1.231,0.975-1.873,2.538-1.873
			c0.871,0,1.462,0.206,2.181,0.026l0.076,2l-0.052,0.025c-0.462-1.025-1.024-1.974-2.077-1.974c-0.77,0-1,0.486-1,0.871
			c0,1.462,3.437,0.846,3.437,3.18c0,1.334-1.128,1.975-2.743,1.975C87.994,63.643,87.045,63.486,86.455,63.385z"/>
		<path id="XMLID_195_" fill="#E7E5F3" d="M92.455,62c0-1.18,1.104-1.642,2.462-1.642c0.513,0,1.077,0.078,1.513,0.18v-1.461
			c0-0.795-0.18-1.487-1.076-1.487c-0.59,0-0.949,0.282-1.18,0.615c0.385,0.18,0.615,0.59,0.615,1c0,0.564-0.462,1.026-1.051,1.026
			c-0.668,0-1-0.539-1-1.052c0-0.923,1.127-1.642,2.769-1.642c1.462,0,3.181,0.59,3.181,2.257v2.976
			c0,0.256,0.127,0.383,0.357,0.383c0.359,0,0.667-0.357,0.898-0.69l0.076,0.052c-0.386,0.563-0.871,1.103-1.847,1.103
			c-0.872,0-1.358-0.437-1.563-0.974c-0.385,0.512-1,1-2.051,1C93.275,63.643,92.455,63.025,92.455,62z M96.43,62.643v-2
			c-0.205-0.053-0.461-0.104-0.666-0.104c-0.719,0-1.025,0.514-1.025,1.334c0,0.69,0.205,1.308,0.82,1.308
			C95.814,63.18,96.122,63.025,96.43,62.643z"/>
		<path id="XMLID_192_" fill="#E7E5F3" d="M100.404,56c0-0.82,0.615-1.308,1.334-1.308c0.691,0,1.332,0.487,1.332,1.308
			c0,1-0.948,1.718-1.281,4.643h-0.104C101.354,57.718,100.404,57,100.404,56z M100.532,62.41c0-0.667,0.538-1.205,1.206-1.205
			c0.666,0,1.205,0.538,1.205,1.205s-0.539,1.205-1.205,1.205C101.07,63.615,100.532,63.077,100.532,62.41z"/>
	</g>
</g>
<g id="XMLID_122_">
	<g id="XMLID_243_">
		<path id="XMLID_263_" fill="#E7E5F3" d="M63.448,59.039c-0.052-0.052-0.052-0.18,0-0.231l2.409-2.462
			c0.053-0.051-0.051-0.153-0.102-0.102l-2.564,2.307c-0.076,0.052-0.18,0.052-0.229,0c-0.052-0.051-0.077-0.179,0-0.23
			c0.795-0.795,1.642-1.59,2.513-2.385c0.025-0.025-0.052-0.102-0.076-0.076c-1.051,0.795-2.129,1.641-3.051,2.538
			c-0.181,0.153-0.258,0.385-0.231,0.616l0.026,0.512c0,0.205-0.053,0.385-0.154,0.539c-0.051-0.051-0.154-0.051-0.205,0
			c-0.053,0.051-0.053,0.154,0,0.205l-1.205,1.205c-0.23,0.23-0.487,0.461-0.744,0.691c-0.256-0.23-0.513-0.486-0.743-0.691
			l-1.205-1.205c0.051-0.051,0.051-0.154,0-0.205c-0.051-0.051-0.128-0.051-0.206,0c-0.129-0.155-0.18-0.335-0.18-0.54l0.025-0.512
			c0-0.231-0.077-0.437-0.23-0.616c-0.923-0.923-2-1.769-3.051-2.538c-0.026-0.025-0.103,0.051-0.077,0.076
			c0.872,0.795,1.718,1.564,2.513,2.385c0.077,0.052,0.051,0.18,0,0.23c-0.051,0.052-0.154,0.052-0.23,0l-2.564-2.307
			c-0.051-0.052-0.154,0.051-0.103,0.102l2.41,2.462c0.051,0.077,0.051,0.18,0,0.231c-0.051,0.051-0.18,0.051-0.231,0l-2.461-2.41
			c-0.051-0.052-0.154,0.051-0.103,0.102l2.308,2.564c0.051,0.077,0.051,0.18,0,0.231c-0.051,0.051-0.18,0.076-0.231,0
			c-0.795-0.795-1.589-1.641-2.384-2.512c-0.026-0.026-0.103,0.051-0.077,0.076c0.795,1.051,1.641,2.129,2.539,3.051
			c0.154,0.18,0.385,0.256,0.615,0.23l0.513-0.025c0.206,0,0.385,0.051,0.539,0.154c-0.051,0.051-0.051,0.153,0,0.205
			c0.051,0.051,0.154,0.051,0.205,0l1.205,1.205c0.205,0.205,0.436,0.461,0.667,0.719c-0.795,0.69-1.667,1.41-2.359,2
			c-0.282,0.256-0.616,0.513-0.897,0.795c-0.795,0.795-1,1.356-0.667,1.691c0.308,0.309,0.872,0.129,1.692-0.666
			c0.282-0.283,0.539-0.591,0.77-0.898c0.564-0.69,1.282-1.536,1.974-2.332c0.692,0.796,1.385,1.642,1.975,2.332
			c0.256,0.283,0.513,0.615,0.795,0.898c0.795,0.795,1.359,1,1.691,0.666c0.309-0.31,0.129-0.871-0.666-1.691
			c-0.282-0.282-0.59-0.539-0.897-0.795c-0.692-0.59-1.563-1.282-2.358-2c0.23-0.258,0.46-0.487,0.666-0.719l1.205-1.205
			c0.051,0.051,0.154,0.051,0.205,0c0.051-0.052,0.051-0.129,0-0.205c0.154-0.129,0.334-0.18,0.539-0.154l0.512,0.025
			c0.231,0,0.438-0.076,0.616-0.23c0.923-0.922,1.769-2,2.538-3.051c0.025-0.025-0.051-0.103-0.076-0.076
			c-0.795,0.871-1.563,1.717-2.385,2.512c-0.052,0.076-0.18,0.051-0.23,0c-0.051-0.051-0.051-0.154,0-0.231l2.308-2.564
			c0.052-0.051-0.052-0.153-0.103-0.102l-2.461,2.41C63.604,59.089,63.5,59.089,63.448,59.039z"/>
	</g>
	<g id="XMLID_46_">
		<path id="XMLID_47_" fill="#E7E5F3" d="M51.269,63.705c-0.025,0-0.025,0-0.025-0.025v-1.488c0-0.024,0-0.024,0.025-0.024h0.795
			h0.026v0.024v0.154v0.025h-0.026h-0.641v0.463h0.487c0.026,0,0.026,0,0.026,0.025v0.154c0,0.024,0,0.024-0.026,0.024h-0.487V63.5
			h0.641h0.026v0.025v0.154v0.024h-0.026L51.269,63.705L51.269,63.705z"/>
		<path id="XMLID_111_" fill="#E7E5F3" d="M53.679,63.68c-0.025,0.025-0.025,0.025-0.051,0.025h-0.564c-0.025,0-0.051,0-0.051-0.025
			l-0.128-0.129l-0.026-0.025V63.5v-0.23c0-0.024,0-0.024,0.026-0.024h0.154c0.025,0,0.025,0,0.025,0.024v0.127v0.027l0.051,0.051
			c0,0,0,0,0.026,0h0.41c0,0,0,0,0.025,0l0.051-0.051l0,0V63.09l-0.077-0.076h-0.513h-0.026c0,0-0.025,0-0.025-0.027l-0.128-0.127
			c-0.025-0.024-0.025-0.024-0.025-0.024v-0.026v-0.461c0-0.025,0-0.052,0.025-0.052l0.128-0.129l0.025-0.024h0.026h0.564
			c0,0,0,0,0.025,0c0,0,0.026,0,0.026,0.024l0.128,0.129l0.025,0.024v0.025v0.23c0,0.025,0,0.025-0.025,0.025h-0.154
			c-0.025,0-0.025,0-0.025-0.025v-0.152v-0.027l-0.051-0.051l0,0h-0.436l0,0l-0.051,0.051c0,0,0,0,0,0.027v0.307c0,0,0,0,0,0.025
			l0.051,0.051h0.026h0.487h0.026c0,0,0.025,0,0.025,0.027l0.128,0.127c0.026,0.025,0.026,0.025,0.026,0.053v0.461c0,0,0,0,0,0.025
			c0,0,0,0.025-0.026,0.025L53.679,63.68z"/>
		<path id="XMLID_137_" fill="#E7E5F3" d="M54.91,63.705C54.91,63.705,54.885,63.705,54.91,63.705
			c-0.025-0.025-0.025-0.025-0.025-0.025v-1.309h-0.333h-0.026v-0.025v-0.154v-0.024h0.026h0.897h0.025v0.024v0.154v0.025h-0.025
			h-0.333v1.309v0.025c0,0,0,0-0.025,0H54.91z"/>
	</g>
	<g id="XMLID_123_">
		<path id="XMLID_225_" fill="#E7E5F3" d="M63.525,63.705c-0.025,0-0.025,0-0.025-0.025v-0.666c0,0,0,0,0-0.027c0,0,0,0,0-0.024
			c0,0,0-0.024,0.025-0.024l0.127-0.129c0.025-0.025,0.025-0.025,0.053-0.025h0.562l0.026-0.025c0,0,0,0,0-0.025v-0.334
			c0,0,0,0,0-0.024l-0.026-0.024c0,0,0,0-0.024,0h-0.538v0.229v0.024H63.68h-0.154H63.5v-0.024V62.35V62.32c0,0,0-0.025,0.025-0.025
			l0.127-0.129c0.025-0.025,0.025-0.025,0.053-0.025h0.562c0.026,0,0.026,0,0.026,0s0.024,0,0.024,0.025l0.129,0.129
			c0,0,0,0.025,0.025,0.025v0.025c0,0,0,0,0,0.024v0.463v0.024c0,0,0,0.025-0.025,0.025l-0.129,0.129
			c-0.024,0.025-0.024,0.025-0.051,0.025h-0.513c0,0,0,0-0.026,0l-0.024,0.025c0,0,0,0,0,0.024v0.41h0.743h0.025v0.024v0.154
			c0,0.025,0,0.025-0.025,0.025h-0.922V63.705z"/>
		<path id="XMLID_233_" fill="#E7E5F3" d="M66.115,63.68C66.09,63.705,66.09,63.705,66.115,63.68
			c-0.025,0.025-0.053,0.025-0.053,0.025H65.5h-0.025c-0.025,0-0.025,0-0.025-0.025l-0.129-0.129l-0.024-0.025V63.5v-1.129
			c0-0.025,0-0.051,0.024-0.051l0.129-0.129l0.025-0.025c0,0,0,0,0.025,0h0.562c0,0,0,0,0.026,0c0.025,0,0.025,0,0.052,0.025
			l0.127,0.129l0.026,0.025v0.024v1.13c0,0.025,0,0.051-0.026,0.051L66.115,63.68z M66.038,63.475
			C66.038,63.475,66.038,63.449,66.038,63.475V62.45v-0.025l-0.024-0.026h-0.025h-0.437h-0.026L65.5,62.424l0,0l0,0v1.025
			c0,0,0,0,0,0.025l0.025,0.024h0.486L66.038,63.475z"/>
		<path id="XMLID_262_" fill="#E7E5F3" d="M67.143,63.705c-0.026,0-0.026,0-0.026-0.025v-1.309h-0.128h-0.025v-0.025l0.102-0.127
			l0.026-0.027c0,0,0,0,0.025,0h0.18h0.024v0.027v1.486v0.025h-0.024h-0.153V63.705L67.143,63.705z"/>
		<path id="XMLID_265_" fill="#E7E5F3" d="M68.938,63.68l-0.026,0.025h-0.025l0,0H68.32h-0.025c0,0,0,0-0.025-0.025l-0.127-0.129
			c-0.026-0.025-0.026-0.025-0.026-0.051v-1.154V62.32c0,0,0-0.025,0.026-0.025l0.127-0.129l0.025-0.025h0.025h0.563h0.025
			c0,0,0.026,0,0.026,0.025l0.127,0.129c0.025,0.025,0.025,0.025,0.025,0.051v0.23v0.025h-0.025h-0.127H68.91v-0.025v-0.23h-0.514
			c0,0,0,0-0.024,0l-0.024,0.025l0,0l0,0v0.309c0,0,0,0,0,0.025l0.024,0.025h0.513h0.025c0,0,0.025,0,0.025,0.024l0.127,0.129
			l0.026,0.025v0.024v0.539V63.5c0,0,0,0.025-0.026,0.025L68.938,63.68z M68.857,63.475C68.857,63.449,68.857,63.449,68.857,63.475
			v-0.41c0,0,0,0,0-0.024l-0.051-0.054h-0.436c0,0,0,0-0.025,0l-0.025,0.027c0,0,0,0,0,0.025v0.41c0,0,0,0,0,0.025l0.025,0.024
			h0.486L68.857,63.475z"/>
	</g>
</g>
</svg>
