<?xml version="1.0" encoding="utf-8"?>
<!-- Generator: Adobe Illustrator 16.0.0, SVG Export Plug-In . SVG Version: 6.00 Build 0)  -->
<!DOCTYPE svg PUBLIC "-//W3C//DTD SVG 1.1//EN" "http://www.w3.org/Graphics/SVG/1.1/DTD/svg11.dtd">
<svg version="1.1" id="Layer_1" xmlns="http://www.w3.org/2000/svg" xmlns:xlink="http://www.w3.org/1999/xlink" x="0px" y="0px"
	 width="120px" height="120px" viewBox="0 0 120 120" enable-background="new 0 0 120 120" xml:space="preserve">
<g display="none" enable-background="new    ">
	<g display="inline">
		<g>
			<polygon points="103.205,30.603 93.648,21.127 59.52,54.973 25.391,21.127 15.835,30.603 49.964,64.449 49.964,64.449 
				59.52,73.925 69.076,64.449 69.076,64.449 			"/>
		</g>
	</g>
</g>
<g display="none" enable-background="new    ">
	<g display="inline">
		<g>
			<path d="M98.357,25.955c-2.634-2.606-6.902-2.606-9.536,0L59.535,54.94L30.249,25.955c-2.633-2.606-6.902-2.606-9.536,0
				s-2.633,6.832,0,9.437l34.054,33.704c2.633,2.606,6.903,2.606,9.536,0l34.055-33.704
				C100.989,32.786,100.989,28.561,98.357,25.955z"/>
		</g>
	</g>
</g>
<g enable-background="new    ">
	<g>
		<g>
			<polygon points="99.791,23.996 59.52,64.227 19.248,23.996 15.835,27.405 59.52,71.045 103.205,27.405 			"/>
		</g>
	</g>
</g>
<g display="none" enable-background="new    ">
	<g display="inline">
		<g>
			<path d="M101.54,25.697c-0.933-0.942-2.442-0.942-3.375,0l-38.15,38.56l-38.151-38.56c-0.932-0.942-2.444-0.942-3.376,0
				s-0.932,2.47,0,3.413l39.839,40.265c0.932,0.941,2.443,0.941,3.375,0L101.54,29.11C102.473,28.167,102.473,26.639,101.54,25.697z
				"/>
		</g>
	</g>
</g>
</svg>
