<?xml version="1.0" encoding="utf-8"?>
<!-- Generator: Adobe Illustrator 16.0.0, SVG Export Plug-In . SVG Version: 6.00 Build 0)  -->
<!DOCTYPE svg PUBLIC "-//W3C//DTD SVG 1.1//EN" "http://www.w3.org/Graphics/SVG/1.1/DTD/svg11.dtd">
<svg version="1.1" id="Layer_1" xmlns="http://www.w3.org/2000/svg" xmlns:xlink="http://www.w3.org/1999/xlink" x="0px" y="0px"
	 width="120px" height="120px" viewBox="0 0 120 120" enable-background="new 0 0 120 120" xml:space="preserve">
<path d="M98.729,84.016L72.41,57.699c4.594-5.169,7.392-11.968,7.392-19.411c0-16.138-13.128-29.266-29.264-29.266
	c-16.138,0-29.266,13.128-29.266,29.266c0,16.136,13.128,29.263,29.266,29.263c7.187,0,13.775-2.609,18.875-6.926l26.354,26.354
	L98.729,84.016z M50.538,64.05c-14.207,0-25.763-11.559-25.763-25.763c0-14.207,11.557-25.765,25.763-25.765
	S76.301,24.08,76.301,38.287C76.301,52.493,64.744,64.05,50.538,64.05z"/>
</svg>
